<?xml version="1.0" encoding="UTF-8" standalone="no"?>
<svg
   xmlns:dc="http://purl.org/dc/elements/1.1/"
   xmlns:cc="http://creativecommons.org/ns#"
   xmlns:rdf="http://www.w3.org/1999/02/22-rdf-syntax-ns#"
   xmlns:svg="http://www.w3.org/2000/svg"
   xmlns="http://www.w3.org/2000/svg"
   xmlns:sodipodi="http://sodipodi.sourceforge.net/DTD/sodipodi-0.dtd"
   xmlns:inkscape="http://www.inkscape.org/namespaces/inkscape"
   id="Layer_5"
   enable-background="new 0 0 64 64"
   height="700"
   viewBox="0 0 125 87.5"
   width="1000"
   version="1.1"
   sodipodi:docname="dqct_logo_v2.svg"
   inkscape:version="0.92.4 (5da689c313, 2019-01-14)"
   inkscape:export-filename="C:\Users\josep\Documents\Δουλειά\HBP\DQCtool\dqctlogo_v2.png"
   inkscape:export-xdpi="109"
   inkscape:export-ydpi="109">
  <metadata
     id="metadata39">
    <rdf:RDF>
      <cc:Work
         rdf:about="">
        <dc:format>image/svg+xml</dc:format>
        <dc:type
           rdf:resource="http://purl.org/dc/dcmitype/StillImage" />
        <dc:title></dc:title>
      </cc:Work>
    </rdf:RDF>
  </metadata>
  <defs
     id="defs37" />
  <sodipodi:namedview
     pagecolor="#ffffff"
     bordercolor="#666666"
     borderopacity="1"
     objecttolerance="10"
     gridtolerance="10"
     guidetolerance="10"
     inkscape:pageopacity="0"
     inkscape:pageshadow="2"
     inkscape:window-width="1858"
     inkscape:window-height="1057"
     id="namedview35"
     showgrid="false"
     inkscape:zoom="0.4609375"
     inkscape:cx="392.81356"
     inkscape:cy="256"
     inkscape:window-x="54"
     inkscape:window-y="-8"
     inkscape:window-maximized="1"
     inkscape:current-layer="Layer_5" />
  <path
     d="m 65.811288,33.52522 0.301,1.978 c 0.683,-0.104 1.356,-0.222 2.016,-0.354 l -0.393,-1.961 c -0.629,0.125 -1.272,0.238 -1.924,0.337 z"
     id="path2"
     inkscape:connector-curvature="0"
     style="fill:#006680" />
  <path
     d="m 69.634288,32.75622 0.496,1.938 c 0.68,-0.174 1.341,-0.365 1.981,-0.572 l -0.616,-1.903 c -0.6,0.194 -1.222,0.374 -1.861,0.537 z"
     id="path4"
     inkscape:connector-curvature="0"
     style="fill:#006680" />
  <path
     d="m 61.916288,33.95522 0.143,1.995 c 0.682,-0.049 1.358,-0.11 2.029,-0.183 l -0.217,-1.988 c -0.647,0.07 -1.299,0.129 -1.955,0.176 z"
     id="path6"
     inkscape:connector-curvature="0"
     style="fill:#006680" />
  <path
     d="m 65.811288,49.52522 0.301,1.978 c 0.683,-0.104 1.356,-0.222 2.016,-0.354 l -0.393,-1.961 c -0.629,0.125 -1.272,0.238 -1.924,0.337 z"
     id="path8"
     inkscape:connector-curvature="0"
     style="fill:#006680" />
  <path
     d="m 69.634288,48.75622 0.496,1.938 c 0.68,-0.174 1.341,-0.365 1.981,-0.572 l -0.616,-1.903 c -0.6,0.194 -1.222,0.374 -1.861,0.537 z"
     id="path10"
     inkscape:connector-curvature="0"
     style="fill:#006680" />
  <path
     d="m 61.916288,49.95522 0.143,1.995 c 0.682,-0.049 1.358,-0.11 2.029,-0.183 l -0.217,-1.988 c -0.647,0.07 -1.299,0.129 -1.955,0.176 z"
     id="path12"
     inkscape:connector-curvature="0"
     style="fill:#006680" />
  <path
     d="m 57.987288,16.09322 c -9.695,0 -20,2.804 -20,8 v 11.744 c -4.752,2.52 -8,7.513 -8,13.256 0,3.008 0.899,5.806 2.429,8.157 l -1.929,1.929 -1.5,-1.5 -11.464,11.464 c -0.991,0.991 -1.536,2.307 -1.536,3.707 0,2.891 2.352,5.243 5.243,5.243 1.4,0 2.717,-0.545 3.707,-1.536 l 11.464,-11.464 -1.5,-1.5 1.929,-1.929 c 2.351,1.53 5.149,2.429 8.157,2.429 5.744,0 10.738,-3.249 13.257,-8.002 9.62,-0.049 19.743,-2.848 19.743,-7.998 v -24 c 0,-5.196 -10.305,-8 -20,-8 z m 0,2 c 10.608,0 18,3.162 18,6 0,2.838 -7.392,6 -18,6 -10.608,0 -18,-3.162 -18,-6 0,-2.838 7.392,-6 18,-6 z m -34.464,57.05 c -0.613,0.613 -1.427,0.95 -2.293,0.95 -1.788,0 -3.243,-1.455 -3.243,-3.243 0,-0.866 0.337,-1.68 0.95,-2.293 l 10.05,-10.05 4.586,4.586 z m 9.964,-12.964 -1.586,-1.586 1.729,-1.729 c 0.489,0.567 1.019,1.097 1.586,1.586 z m 11.5,-0.086 c -7.168,0 -13,-5.832 -13,-13 0,-7.168 5.832,-13 13,-13 7.168,0 13,5.832 13,13 0,7.168 -5.832,13 -13,13 z m 14.133,-8.021 c 0.551,-1.561 0.867,-3.232 0.867,-4.979 0,-0.353 -0.029,-0.699 -0.053,-1.046 7.947,-0.275 13.358,-2.09 16.053,-4.379 v 4.425 c 0,2.735 -6.875,5.762 -16.867,5.979 z m 0.557,-8.016 c -0.458,-2.22 -1.421,-4.252 -2.744,-5.997 0.353,0.007 0.701,0.034 1.054,0.034 7.108,0 14.537,-1.509 18,-4.36 v 4.36 c 0,2.625 -6.66,5.642 -16.31,5.963 z m -1.69,-7.963 c -0.986,0 -1.97,-0.038 -2.94,-0.094 -2.665,-2.418 -6.187,-3.906 -10.06,-3.906 -1.755,0 -3.433,0.319 -5,0.875 v -7.235 c 3.463,2.851 10.892,4.36 18,4.36 7.108,0 14.537,-1.509 18,-4.36 v 4.36 c 0,2.838 -7.392,6 -18,6 z"
     id="path14"
     inkscape:connector-curvature="0"
     style="fill:#006680" />
  <path
     d="m 57.987288,28.09322 c 1.433,0 14,-0.112 14,-4 0,-3.888 -12.567,-4 -14,-4 -1.433,0 -14,0.112 -14,4 0,3.888 12.567,4 14,4 z m 0,-6 c 6.929,0 11.228,1.233 11.945,2 -0.717,0.767 -5.016,2 -11.945,2 -6.929,0 -11.228,-1.233 -11.945,-2 0.717,-0.767 5.016,-2 11.945,-2 z"
     id="path16"
     inkscape:connector-curvature="0"
     style="fill:#006680" />
  <path
     d="m 70.987288,58.09322 h -13 v 7 c 0,3.86 3.14,7 7,7 h 6 c 3.86,0 7,-3.14 7,-7 0,-3.86 -3.14,-7 -7,-7 z m 0,12 h -6 c -2.757,0 -5,-2.243 -5,-5 v -5 h 11 c 2.757,0 5,2.243 5,5 0,2.757 -2.243,5 -5,5 z"
     id="path20"
     inkscape:connector-curvature="0"
     style="fill:#006680" />
  <path
     d="m 44.987288,38.09322 c -6.065,0 -11,4.935 -11,11 0,6.065 4.935,11 11,11 6.065,0 11,-4.935 11,-11 0,-6.065 -4.935,-11 -11,-11 z m 8.397,7.788 c -6.986,-0.647 -11.527,-2.628 -12.926,-4.552 1.332,-0.781 2.877,-1.236 4.529,-1.236 3.83,0 7.1,2.409 8.397,5.788 z m -17.397,3.212 c 0,-2.136 0.752,-4.099 2,-5.644 v 4.644 c 0,3.559 5.105,6.439 13.162,7.542 -1.612,1.519 -3.777,2.458 -6.162,2.458 -4.962,0 -9,-4.038 -9,-9 z m 16.656,4.707 c -8.218,-0.902 -12.656,-3.58 -12.656,-5.707 v -4.389 c 2.617,2.176 7.629,3.731 13.916,4.224 0.05,0.382 0.084,0.769 0.084,1.165 0,1.727 -0.497,3.335 -1.344,4.707 z"
     id="path24"
     inkscape:connector-curvature="0"
     style="fill:#006680" />
  <path
     d="m 61.987288,62.09322 h 2 v 2 h -2 z"
     id="path26"
     inkscape:connector-curvature="0"
     style="fill:#006680" />
  <path
     d="m 65.987288,62.09322 h 2 v 2 h -2 z"
     id="path28"
     inkscape:connector-curvature="0"
     style="fill:#006680" />
  <path
     d="m 61.987288,66.09322 h 12 v 2 h -12 z"
     id="path30"
     inkscape:connector-curvature="0"
     style="fill:#006680" />
  <path
     d="m 69.987288,62.09322 h 2 v 2 h -2 z"
     id="path32"
     inkscape:connector-curvature="0"
     style="fill:#006680" />
  <path
     style="fill:#aaeeff;fill-opacity:1;stroke:none;stroke-width:0.27118644;stroke-opacity:1"
     d="m 53.977119,37.015417 c -3.428344,-2.592626 -8.480543,-3.627973 -12.55107,-2.572092 l -1.415032,0.367055 v -3.372704 c 0,-1.854987 0.09152,-3.326882 0.203389,-3.270877 3.286834,1.645558 4.719003,2.222745 6.849767,2.760563 8.60693,2.172448 20.297409,1.421534 26.64176,-1.711281 l 2.101695,-1.037807 V 30.4285 c 0,2.035005 -0.06831,2.331401 -0.714165,3.09896 -2.117923,2.51701 -9.153683,4.360649 -16.506174,4.325251 -3.492304,-0.01681 -3.535615,-0.02468 -4.61017,-0.837294 z m 10.118065,-2.05779 c -0.08215,-0.992567 -0.112668,-1.018991 -1.272878,-1.102106 -1.125832,-0.08065 -1.179821,-0.05196 -1.020652,0.542373 0.09243,0.345141 0.169725,0.841088 0.171761,1.102106 0.0029,0.373449 0.238339,0.474576 1.10482,0.474576 h 1.101116 z m 3.89598,-0.753423 c -0.04821,-0.589377 -0.109224,-1.086019 -0.135594,-1.103649 -0.02636,-0.01763 -0.50557,0.02499 -1.064893,0.09472 -1.063241,0.132546 -1.225623,0.483054 -0.858021,1.852065 0.130067,0.484389 0.292734,0.540513 1.148839,0.396374 0.97209,-0.163668 0.9951,-0.195021 0.909669,-1.23951 z m 4.214435,0.01081 c 0.03244,-0.01691 -0.07956,-0.482157 -0.24889,-1.033895 -0.326492,-1.063804 -0.566368,-1.166172 -1.711998,-0.730606 -0.636566,0.242022 -0.695725,0.371127 -0.528135,1.152542 0.103803,0.483995 0.235518,0.960057 0.2927,1.057915 0.07766,0.132907 1.72881,-0.202353 2.196323,-0.445956 z"
     id="path5139"
     inkscape:connector-curvature="0" />
  <path
     style="fill:#37c8ab;fill-opacity:1;stroke:none;stroke-width:0.27118644;stroke-opacity:1"
     d="m 52.686685,29.711054 c -6.438273,-0.714959 -11.822793,-2.988669 -12.513379,-5.283999 -0.646792,-2.149769 4.668049,-4.860049 11.354151,-5.79 2.680324,-0.372799 10.06849,-0.373131 12.80292,-6.25e-4 6.556509,0.893298 11.47725,3.239881 11.47725,5.473226 0,2.053497 -4.019642,4.147445 -10.044508,5.232478 -2.875744,0.5179 -9.939938,0.717172 -13.076434,0.368871 z M 64.96017,27.71621 c 4.85344,-0.736158 7.050848,-1.876801 7.050848,-3.659995 0,-1.591841 -2.067735,-2.729315 -6.508475,-3.580347 -2.817364,-0.539927 -12.607083,-0.45096 -15.592483,0.141698 -2.939662,0.583579 -4.852018,1.365933 -5.570014,2.278717 -0.708212,0.900346 -0.671233,1.481877 0.156803,2.465942 1.023443,1.216294 3.048363,1.869489 7.988745,2.576993 1.926861,0.275942 10.154785,0.128852 12.474576,-0.223008 z"
     id="path5149"
     inkscape:connector-curvature="0" />
  <path
     style="fill:#ffdd55;fill-opacity:1;stroke:none;stroke-width:0.27118644;stroke-opacity:1"
     d="M 59.745496,45.672715 C 59.354724,44.314146 58.59358,42.441806 58.045691,41.49136 l -0.649827,-1.127285 2.383847,-0.171636 c 7.280905,-0.52422 12.657169,-1.818405 15.263464,-3.674251 l 0.8153,-0.580544 v 2.205786 c 0,1.213183 -0.139951,2.467286 -0.311003,2.786899 -1.256221,2.34727 -6.438385,4.153407 -14.13695,4.927144 -1.138993,0.114473 -1.593462,0.06405 -1.665026,-0.184758 z"
     id="path5155"
     inkscape:connector-curvature="0" />
  <path
     style="fill:#ffdd55;fill-opacity:1;stroke:none;stroke-width:0.27118644;stroke-opacity:1"
     d="m 50.074537,45.316462 c -4.20431,-0.761342 -8.76632,-2.670923 -9.127347,-3.820553 -0.156033,-0.496862 2.313012,-1.182576 4.247729,-1.1797 2.197097,0.0033 4.230213,0.866336 5.939543,2.521372 1.025755,0.993175 1.944352,2.2927 1.944352,2.750647 0,0.212231 -0.662463,0.152304 -3.004277,-0.271766 z"
     id="path5157"
     inkscape:connector-curvature="0" />
  <path
     style="fill:#ffb380;fill-opacity:1;stroke:none;stroke-width:0.27118644;stroke-opacity:1"
     d="m 59.423344,53.398305 c 0.394103,-1.300726 0.69374,-3.030945 0.699687,-4.040274 l 0.0066,-1.125019 1.966101,-0.182143 c 5.293172,-0.490372 9.783485,-1.643838 12.221409,-3.139419 0.718386,-0.440704 1.359064,-0.80128 1.423729,-0.80128 0.06467,0 0.117575,1.033041 0.117575,2.295648 0,2.15637 -0.04863,2.351036 -0.801539,3.208551 -1.840059,2.095711 -9.09847,4.251109 -14.33538,4.256914 -1.247706,0.0014 -1.422629,-0.06235 -1.298212,-0.472978 z m 4.774113,-2.079515 c 0,-1.220465 -0.268296,-1.513705 -1.384946,-1.513705 -1.116795,0 -1.243057,0.222515 -0.884806,1.559321 0.13398,0.499948 0.353755,0.61017 1.216635,0.61017 0.933036,0 1.053117,-0.07478 1.053117,-0.655786 z m 3.854786,-0.846184 c -0.124463,-1.291131 -0.2175,-1.385231 -1.250368,-1.26465 -0.863234,0.100778 -0.977299,0.202998 -0.977299,0.875805 0,1.341123 0.19658,1.546949 1.300027,1.361173 0.919202,-0.154758 0.998445,-0.237817 0.92764,-0.972328 z m 3.892307,-1.0507 c -0.227549,-1.137746 -0.514311,-1.34976 -1.418279,-1.048586 -0.872823,0.290797 -1.045761,0.755262 -0.659493,1.771224 0.253426,0.666562 0.319327,0.687601 1.254646,0.400543 0.91203,-0.27991 0.974682,-0.365402 0.823126,-1.123181 z"
     id="path5161"
     inkscape:connector-curvature="0" />
  <path
     style="fill:#ffb380;fill-opacity:1;stroke:none;stroke-width:0.27118644;stroke-opacity:1"
     d="m 49.14661,53.154562 c -2.536512,-0.538373 -5.270671,-1.501661 -6.790753,-2.392488 -1.817155,-1.064923 -2.291752,-2.00672 -2.292978,-4.550209 -5e-4,-1.155933 0.06243,-2.101695 0.139967,-2.101695 0.07754,0 0.629378,0.30831 1.226306,0.685134 2.144722,1.353903 8.690864,3.111476 11.588805,3.111476 h 0.952845 l -0.16083,1.722289 c -0.08846,0.947258 -0.363421,2.228615 -0.611032,2.847457 -0.522258,1.305249 -0.843794,1.359048 -4.05233,0.678036 z"
     id="path5163"
     inkscape:connector-curvature="0" />
  <path
     style="fill:#80e5ff;fill-opacity:1;stroke:none;stroke-width:0.27118644;stroke-opacity:1"
     d="m 52.239666,25.679297 c -1.991581,-0.253923 -4.938792,-0.961006 -5.627447,-1.350111 -0.373327,-0.210939 -0.280384,-0.324177 0.553536,-0.674412 4.364804,-1.833163 17.387761,-1.814558 21.627812,0.0309 l 0.963213,0.419233 -0.948685,0.403764 c -1.987095,0.845717 -4.528215,1.18677 -9.627586,1.292153 -2.833899,0.05857 -5.957278,0.0039 -6.940843,-0.121525 z"
     id="path5165"
     inkscape:connector-curvature="0" />
  <path
     style="fill:#cccccc;fill-opacity:1;stroke:none;stroke-width:0.27118644;stroke-opacity:1"
     d="m 19.173536,75.060172 c -0.896971,-0.896971 -1.215707,-1.8849 -0.951762,-2.950002 0.116336,-0.469456 2.159818,-2.73143 5.515425,-6.10514 l 5.330616,-5.359378 2.174991,2.176709 2.17499,2.176709 -5.437376,5.419956 -5.437377,5.419956 h -1.295348 c -1.06485,0 -1.433933,-0.138582 -2.074159,-0.77881 z"
     id="path5167"
     inkscape:connector-curvature="0" />
  <path
     style="fill:#cccccc;fill-opacity:1;stroke:none;stroke-width:0.27118644;stroke-opacity:1"
     d="m 42.231356,61.639007 c -4.494352,-0.976331 -8.159961,-4.405722 -9.529829,-8.915711 -0.469826,-1.5468 -0.550708,-2.354705 -0.44262,-4.421157 0.114547,-2.189893 0.263772,-2.805433 1.114315,-4.596434 3.11916,-6.568066 10.633712,-9.244218 17.264913,-6.148543 2.14087,0.999433 4.958612,3.880792 5.964442,6.099103 2.815045,6.208451 0.658435,13.017399 -5.243982,16.556534 -2.659639,1.59474 -5.97016,2.112037 -9.127239,1.426208 z m 6.430505,-2.111161 c 8.0005,-2.968392 9.970028,-12.899387 3.703738,-18.675452 -5.330995,-4.913939 -14.10509,-3.203347 -17.32487,3.377647 -3.009245,6.150675 0.163915,13.400781 6.783847,15.499885 1.780436,0.564556 5.029871,0.468518 6.837285,-0.20208 z"
     id="path5169"
     inkscape:connector-curvature="0" />
  <flowRoot
     xml:space="preserve"
     id="flowRoot815"
     style="font-style:normal;font-weight:normal;font-size:40px;line-height:1.25;font-family:sans-serif;letter-spacing:0px;word-spacing:0px;fill:#000000;fill-opacity:1;stroke:none"
     transform="matrix(0.49125549,0,0,0.7123926,-65.617659,-185.76915)"><flowRegion
       id="flowRegion817"><rect
         id="rect819"
         width="297.85715"
         height="162.85715"
         x="135.71428"
         y="266.80539" /></flowRegion><flowPara
       id="flowPara821"
       style="font-style:normal;font-variant:normal;font-weight:normal;font-stretch:normal;font-family:'Eras Bold ITC';-inkscape-font-specification:'Eras Bold ITC';fill:#006680">MIP</flowPara></flowRoot>  <flowRoot
     xml:space="preserve"
     id="flowRoot5779"
     style="font-style:normal;font-weight:normal;font-size:40px;line-height:1.25;font-family:sans-serif;letter-spacing:0px;word-spacing:0px;fill:#000000;fill-opacity:1;stroke:none"
     transform="matrix(0.125,0,0,0.125,-7.4661017,3.6906779)"><flowRegion
       id="flowRegion5781"><rect
         id="rect5783"
         width="277.69492"
         height="149.69492"
         x="694.2373"
         y="57.830509" /></flowRegion><flowPara
       id="flowPara5785"
       style="font-style:normal;font-variant:normal;font-weight:normal;font-stretch:normal;font-size:109.33333588px;font-family:'Bauhaus 93';-inkscape-font-specification:'Bauhaus 93, ';fill:#00aad4">Data</flowPara></flowRoot>  <flowRoot
     transform="matrix(0.125,0,0,0.125,-7.7729001,18.165388)"
     xml:space="preserve"
     id="flowRoot5779-8"
     style="font-style:normal;font-weight:normal;font-size:40px;line-height:1.25;font-family:sans-serif;letter-spacing:0px;word-spacing:0px;fill:#000000;fill-opacity:1;stroke:none"><flowRegion
       id="flowRegion5781-9"><rect
         id="rect5783-0"
         width="379.6611"
         height="147.52541"
         x="694.2373"
         y="57.830509" /></flowRegion><flowPara
       id="flowPara5785-1"
       style="font-style:normal;font-variant:normal;font-weight:normal;font-stretch:normal;font-size:109.33333588px;font-family:'Bauhaus 93';-inkscape-font-specification:'Bauhaus 93, ';fill:#00aad4">Quality</flowPara></flowRoot>  <flowRoot
     transform="matrix(0.125,0,0,0.125,-7.2920125,33.394511)"
     xml:space="preserve"
     id="flowRoot5779-8-7"
     style="font-style:normal;font-weight:normal;font-size:40px;line-height:1.25;font-family:sans-serif;letter-spacing:0px;word-spacing:0px;fill:#000000;fill-opacity:1;stroke:none"><flowRegion
       id="flowRegion5781-9-6"><rect
         id="rect5783-0-2"
         width="462.10175"
         height="123.66101"
         x="694.2373"
         y="57.830509" /></flowRegion><flowPara
       id="flowPara5785-1-4"
       style="font-style:normal;font-variant:normal;font-weight:normal;font-stretch:normal;font-size:109.33333588px;font-family:'Bauhaus 93';-inkscape-font-specification:'Bauhaus 93, ';fill:#00aad4">Control</flowPara></flowRoot>  <flowRoot
     transform="matrix(0.125,0,0,0.125,-5.1406168,48.076008)"
     xml:space="preserve"
     id="flowRoot5779-8-7-2"
     style="font-style:normal;font-weight:normal;font-size:40px;line-height:1.25;font-family:sans-serif;letter-spacing:0px;word-spacing:0px;fill:#000000;fill-opacity:1;stroke:none"><flowRegion
       id="flowRegion5781-9-6-9"><rect
         id="rect5783-0-2-5"
         width="227.79668"
         height="138.84746"
         x="694.2373"
         y="57.830509" /></flowRegion><flowPara
       id="flowPara5785-1-4-3"
       style="font-style:normal;font-variant:normal;font-weight:normal;font-stretch:normal;font-size:109.33333588px;font-family:'Bauhaus 93';-inkscape-font-specification:'Bauhaus 93, ';fill:#00aad4">tool</flowPara></flowRoot>  <flowRoot
     xml:space="preserve"
     id="flowRoot5859"
     style="fill:black;fill-opacity:1;stroke:none;font-family:sans-serif;font-style:normal;font-weight:normal;font-size:40px;line-height:1.25;letter-spacing:0px;word-spacing:0px"><flowRegion
       id="flowRegion5861"><rect
         id="rect5863"
         width="6.5084743"
         height="58.576271"
         x="731.11865"
         y="29.627119" /></flowRegion><flowPara
       id="flowPara5865"></flowPara></flowRoot></svg>
